# xmcd
#
# Track frame offsets:
#	150
#	13988
#	24818
#	39806
#	52283
#	67418
#	82240
#	96327
#	107618
#	117997
#	129018
#	147549
#	156111
#	168542
#	181472
#	191644
#
# Disc length: 2688 seconds
#
# Revision: 0
# Processed by: cddbd v1.5.1PL2 Copyright (c) Steve Scherf et al.
# Submitted via: dBpowerAMP V4.0
#
DISCID=e50a7e10
DTITLE=Various Artist - Essential Country Duets disc three
DYEAR=2005
DGENRE=Country
TTITLE0=Willie Nelson and Leon Russell - Heartbreak Hotel.mp3
TTITLE1=George Jones and Tammy Wynette - After The Fire Is Gone.mp3
TTITLE2=Larry Gatlin and Bros - I just Wish You Were Someone I Love.mp3
TTITLE3=Ernest Tubb, Waylon Jennings and Willie Nelson - You Nearly Lost Your Mind.mp3Track04
TTITLE4=Sweethearts Of The Rodeo - This Heart.mp3
TTITLE5=O'Kanes - Just Loving You.mp3
TTITLE6=Kendalls - Crying Time.mp3
TTITLE7=Ernest Tubb and Loretta Lynn - Answer The Phone.mp3
TTITLE8=Wilburn Brothers - Troubles Back IN Town.mp3
TTITLE9=Lonzo and Oscar - No Relief In Sight.mp3
TTITLE10=Viv Willis Trio - American Trilogy.mp3
TTITLE11=Doug and Rusty Kershaw - Why Don't You Love Me.mp3
TTITLE12=Ernest Tubb and Marty Robbins - Journey's End.mp3
TTITLE13=George and Lorrie Morgan - I'm Completely Satisfied With You.mp3
TTITLE14=Statler Brothers - Ruthless.mp3
TTITLE15=Johnny Russell and David Wilkins - Bread and Butter.mp3
EXTD=
EXTT0=
EXTT1=
EXTT2=
EXTT3=
EXTT4=
EXTT5=
EXTT6=
EXTT7=
EXTT8=
EXTT9=
EXTT10=
EXTT11=
EXTT12=
EXTT13=
EXTT14=
EXTT15=
PLAYORDER=
